<svg xmlns="http://www.w3.org/2000/svg" data-name="Layer 1" viewBox="0 0 36 36" id="SlightlySmilling"><path d="M18,1A17,17,0,1,0,35,18,17.019,17.019,0,0,0,18,1Zm0,33A16,16,0,1,1,34,18,16.01833,16.01833,0,0,1,18,34ZM13,18a3,3,0,1,0-3-3A3.00328,3.00328,0,0,0,13,18Zm0-5a2,2,0,1,1-2,2A2.0026,2.0026,0,0,1,13,13Zm10,5a3,3,0,1,0-3-3A3.00328,3.00328,0,0,0,23,18Zm0-5a2,2,0,1,1-2,2A2.0026,2.0026,0,0,1,23,13Zm3.08789,11.4668a9.77771,9.77771,0,0,1-16.17578,0,.5.5,0,0,0-.82422.5664,10.77785,10.77785,0,0,0,17.82422,0,.5.5,0,1,0-.82422-.5664Z" fill="#f0ffff" class="color000000 svgShape"></path></svg>